<svg xmlns="http://www.w3.org/2000/svg" viewBox="0 0 1200 675" role="img" aria-label="Illustrative news image of Boeing 737 Max 9 door plug inspection">
  <defs>
    <linearGradient id="sky" x1="0" x2="1" y1="0" y2="1">
      <stop offset="0" stop-color="#dfe8f2"/>
      <stop offset="0.48" stop-color="#f3f5f8"/>
      <stop offset="1" stop-color="#c7d1dc"/>
    </linearGradient>
    <linearGradient id="fuselage" x1="0" x2="1">
      <stop offset="0" stop-color="#f7f7f7"/>
      <stop offset="0.45" stop-color="#d8dde3"/>
      <stop offset="1" stop-color="#ffffff"/>
    </linearGradient>
    <filter id="shadow" x="-20%" y="-20%" width="140%" height="140%">
      <feDropShadow dx="0" dy="16" stdDeviation="18" flood-color="#0f172a" flood-opacity=".22"/>
    </filter>
  </defs>
  <rect width="1200" height="675" fill="url(#sky)"/>
  <rect y="500" width="1200" height="175" fill="#b9c0c8"/>
  <rect y="534" width="1200" height="10" fill="#e9edf2" opacity=".6"/>
  <g filter="url(#shadow)">
    <path d="M91 316c148-90 343-134 586-134h342c45 0 87 17 119 47l20 19c14 13 10 36-8 43l-44 18c-43 18-89 27-136 27H420c-102 0-204 12-303 36l-49 12c-37 9-61-48-28-68l51-30z" fill="url(#fuselage)"/>
    <path d="M96 333c140-51 284-76 433-76h576" fill="none" stroke="#2b3642" stroke-width="8" opacity=".28"/>
    <path d="M705 336h159c24 0 46 12 60 32l79 110H867l-162-142z" fill="#c5ccd5"/>
    <path d="M342 181l-116-80c-21-15-49 9-37 32l80 150 112-37-39-65z" fill="#d5dbe3"/>
    <path d="M172 361l-91 94c-18 19-4 50 22 50h208l118-116-257-28z" fill="#d7dde5"/>
    <g fill="#263241" opacity=".78">
      <circle cx="267" cy="259" r="12"/>
      <circle cx="323" cy="247" r="12"/>
      <circle cx="381" cy="238" r="12"/>
      <circle cx="439" cy="231" r="12"/>
      <circle cx="499" cy="226" r="12"/>
      <circle cx="559" cy="223" r="12"/>
      <circle cx="619" cy="222" r="12"/>
      <circle cx="679" cy="222" r="12"/>
    </g>
    <rect x="760" y="222" width="105" height="82" rx="10" fill="#eef1f5" stroke="#465260" stroke-width="6"/>
    <rect x="788" y="247" width="50" height="32" rx="5" fill="#c1d7eb"/>
    <circle cx="752" cy="214" r="8" fill="#9b1c1c"/>
    <circle cx="873" cy="214" r="8" fill="#9b1c1c"/>
    <circle cx="752" cy="312" r="8" fill="#9b1c1c"/>
    <circle cx="873" cy="312" r="8" fill="#9b1c1c"/>
  </g>
  <g transform="translate(815 386)">
    <rect x="0" y="0" width="190" height="116" rx="12" fill="#1f2937" opacity=".9"/>
    <rect x="18" y="18" width="154" height="12" rx="6" fill="#e5e7eb"/>
    <rect x="18" y="44" width="112" height="10" rx="5" fill="#9ca3af"/>
    <rect x="18" y="68" width="138" height="10" rx="5" fill="#9ca3af"/>
    <rect x="18" y="91" width="72" height="9" rx="4.5" fill="#ef4444"/>
  </g>
  <text x="48" y="620" font-family="Arial, Helvetica, sans-serif" font-size="22" fill="#334155" opacity=".78">Controlled illustrative news image for ClawTrap review</text>
</svg>
